# xmcd
#
# Track frame offsets:
#	150
#	16528
#	34055
#	50571
#	68944
#	85655
#	102510
#	120600
#	139999
#	154398
#	172886
#	191808
#	211824
#	226981
#	251230
#	269419
#	287121
#	307791
#	324025
#
# Disc length: 4588 seconds
#
# Revision: 1
# Processed by: cddbd v1.5.1PL0 Copyright (c) Steve Scherf et al.
# Submitted via: audiograbber 1.82.01
#
DISCID=0711ea13
DTITLE=Ротару София - Одна калина
DYEAR=2003
DGENRE=Vocal
TTITLE0=Одна калина
TTITLE1=Белый танец
TTITLE2=Дождик
TTITLE3=На берегу нашей первой любви
TTITLE4=Девчонка с гитарой
TTITLE5=Ты скажешь мне прости
TTITLE6=Не спросишь
TTITLE7=Забыть
TTITLE8=Жизнь моя, моя любовь
TTITLE9=Я тебя по-прежнему люблю
TTITLE10=Я стала старше на любовь
TTITLE11=Лунная радуга
TTITLE12=Любовь прошедшая
TTITLE13=Люби меня
TTITLE14=Хуторянка
TTITLE15=Остров любви
TTITLE16=Ночной мотылёк
TTITLE17=Вкус любви
TTITLE18=Было, но прошло
EXTD=
EXTT0=
EXTT1=
EXTT2=
EXTT3=
EXTT4=
EXTT5=
EXTT6=
EXTT7=
EXTT8=
EXTT9=
EXTT10=
EXTT11=
EXTT12=
EXTT13=
EXTT14=
EXTT15=
EXTT16=
EXTT17=
EXTT18=
PLAYORDER=
